<svg width="196" height="40" viewBox="0 0 196 40" fill="none" xmlns="http://www.w3.org/2000/svg">
<path d="M9.78871 39.5531C15.977 39.5531 19.1274 36.1452 19.1274 29.8883V25.6983C19.1274 19.4413 15.977 16.0335 9.78871 16.0335H6.18829V6.03345H17.3272V0.446858H0V39.5531H9.78871ZM6.18829 33.9665V21.6201H9.78871C11.7577 21.6201 12.9391 22.5139 12.9391 25.3072V30.2793C12.9391 33.0726 11.7577 33.9664 9.78871 33.9664L6.18829 33.9665Z" fill="white"/>
<path d="M32.4041 0.446858H23.2905V39.5531H29.4787V24.8603H32.4041C38.5924 24.8603 41.6303 21.4525 41.6303 15.1955V10.1117C41.6303 3.85477 38.5924 0.446858 32.4041 0.446858ZM32.4041 6.03345C34.3731 6.03345 35.442 6.9273 35.442 9.7206V15.5865C35.442 18.3798 34.3731 19.2736 32.4041 19.2736H29.4787V6.03338L32.4041 6.03345Z" fill="white"/>
<path d="M50.1813 9.44129C50.1813 6.648 51.419 5.58653 53.3879 5.58653C55.3569 5.58653 56.5947 6.648 56.5947 9.44129V30.5586C56.5947 33.3519 55.3569 34.4134 53.3879 34.4134C51.419 34.4134 50.1813 33.3519 50.1813 30.5586V9.44129ZM43.993 30.1676C43.993 36.4245 47.3122 39.9999 53.3879 39.9999C59.4638 39.9999 62.7829 36.4245 62.7829 30.1676V9.83235C62.7829 3.5754 59.4638 0 53.3879 0C47.3122 0 43.993 3.5754 43.993 9.83235V30.1676Z" fill="white"/>
<path d="M80.8977 39.5531H87.2547L78.6474 17.8771L87.2547 0.446858H81.0665L72.9654 17.486V0.446858H66.7772V39.5531H72.9654V27.5418L74.8782 23.9664L80.8977 39.5531Z" fill="white"/>
<path d="M96.2558 6.03345H106.945V0.446858H90.0676V39.5531H106.945V33.9665H96.2558V22.5139H104.751V16.9273H96.2558V6.03345Z" fill="white"/>
<path d="M119.884 0.446858H110.77V39.5531H116.958V24.8603H119.884C126.072 24.8603 129.11 21.4525 129.11 15.1955V10.1117C129.11 3.85477 126.072 0.446858 119.884 0.446858ZM119.884 6.03345C121.853 6.03345 122.922 6.9273 122.922 9.7206V15.5865C122.922 18.3798 121.853 19.2736 119.884 19.2736H116.958V6.03338L119.884 6.03345Z" fill="white"/>
<path d="M135.805 9.7206H140.586V39.5531H146.775V0.446858H142.612C141.655 3.0726 140.586 5.36303 135.805 5.36303V9.7206Z" fill="white"/>
<path d="M153.976 26.9274V30.1677C153.976 36.4246 157.126 40 163.202 40C169.278 40 172.428 36.4246 172.428 30.1677V21.4525C172.428 15.6983 170.121 12.514 165.565 12.514C163.089 12.514 161.289 13.5196 160.164 15.3631L160.67 6.03352H171.415V0.446924H155.101L153.976 23.1285H159.826V21.9554C159.826 19.1621 161.064 18.1005 163.033 18.1005C165.002 18.1005 166.24 19.1621 166.24 21.9554V30.5588C166.24 33.3521 165.002 34.3577 163.033 34.3577C161.064 34.3577 159.826 33.3521 159.826 30.5588V26.9274L153.976 26.9274Z" fill="white"/>
<path d="M175.072 32.4581H186.999V39.5531H193.075V32.4581H196V26.8715H193.075V0.44689H186.324L175.072 26.8715V32.4581ZM180.754 26.8715L186.999 12.1787V26.8715H180.754Z" fill="white"/>
</svg>
