<svg width="24" height="24" viewBox="0 0 24 24" fill="none" xmlns="http://www.w3.org/2000/svg">
<path d="M12.6252 16C7.84197 16 5.11368 12.997 5 8H7.396C7.4747 11.6677 9.2411 13.2212 10.6402 13.5415V8H12.8963V11.1632C14.278 11.027 15.7295 9.58559 16.2192 8H18.4753C18.2908 8.82233 17.923 9.60094 17.3948 10.2871C16.8667 10.9733 16.1896 11.5524 15.406 11.988C16.2807 12.386 17.0534 12.9494 17.6729 13.641C18.2924 14.3326 18.7447 15.1366 19 16H16.5166C16.2874 15.2501 15.8216 14.5787 15.1776 14.0702C14.5336 13.5616 13.74 13.2384 12.8963 13.1411V16H12.6252Z" fill="white"/>
</svg>
