<svg width="24" height="24" viewBox="0 0 24 24" fill="none" xmlns="http://www.w3.org/2000/svg">
<path fill-rule="evenodd" clip-rule="evenodd" d="M6.99319 15.7636C6.76842 15.7017 6.56334 15.5916 6.39524 15.4426C6.22715 15.2936 6.10098 15.11 6.02737 14.9073C5.60677 13.8599 5.48215 9.48636 6.29219 8.62297C6.56179 8.34211 6.94242 8.16918 7.35148 8.14174C9.52457 7.92943 16.2386 7.95774 17.0097 8.21251C17.2266 8.27644 17.4247 8.38414 17.5893 8.52753C17.7538 8.67093 17.8806 8.8463 17.9599 9.04051C18.4195 10.1233 18.435 14.0581 17.8976 15.0984C17.755 15.3692 17.5164 15.5886 17.22 15.7212C16.4099 16.0892 8.06805 16.0821 6.99319 15.7636ZM10.4437 13.7113L14.3381 11.8713L10.4437 10.0171V13.7113Z" fill="white"/>
</svg>
