<?xml version="1.0" encoding="utf-8"?><svg width="196" height="40" fill="none" xmlns="http://www.w3.org/2000/svg" viewBox="0 0 196 40"><path d="M9.789 39.553c6.188 0 9.338-3.408 9.338-9.665v-4.19c0-6.257-3.15-9.665-9.338-9.665h-3.6v-10h11.138V.447H0v39.106h9.789zm-3.6-5.586V21.62h3.6c1.969 0 3.15.894 3.15 3.687v4.972c0 2.794-1.181 3.687-3.15 3.687h-3.6zM32.404.447H23.29v39.106h6.189V24.86h2.925c6.188 0 9.226-3.407 9.226-9.665v-5.083c0-6.257-3.038-9.665-9.226-9.665zm0 5.586c1.97 0 3.038.894 3.038 3.688v5.865c0 2.794-1.069 3.688-3.038 3.688H29.48V6.034h2.925zM50.181 9.441c0-2.793 1.238-3.854 3.207-3.854 1.969 0 3.207 1.061 3.207 3.854V30.56c0 2.793-1.238 3.854-3.207 3.854-1.969 0-3.207-1.061-3.207-3.854V9.44zm-6.188 20.727c0 6.257 3.32 9.832 9.395 9.832 6.076 0 9.395-3.575 9.395-9.832V9.832c0-6.257-3.32-9.832-9.395-9.832-6.076 0-9.395 3.575-9.395 9.832v20.336zM80.898 39.553h6.357l-8.608-21.676L87.255.447h-6.188l-8.102 17.039V.446h-6.188v39.107h6.188V27.542l1.913-3.576 6.02 15.587zM96.256 6.033h10.689V.447H90.068v39.106h16.877v-5.586h-10.69V22.514h8.496v-5.587h-8.495V6.033zM119.884.447h-9.114v39.106h6.188V24.86h2.926c6.188 0 9.226-3.407 9.226-9.665v-5.083c0-6.257-3.038-9.665-9.226-9.665zm0 5.586c1.969 0 3.038.894 3.038 3.688v5.865c0 2.794-1.069 3.688-3.038 3.688h-2.926V6.034h2.926zM135.805 9.72h4.781v29.833h6.189V.447h-4.163c-.957 2.626-2.026 4.916-6.807 4.916v4.358zM153.976 26.927v3.24c0 6.258 3.15 9.833 9.226 9.833 6.076 0 9.226-3.575 9.226-9.832v-8.715c0-5.755-2.307-8.939-6.863-8.939-2.476 0-4.276 1.006-5.401 2.85l.506-9.33h10.745V.447h-16.314l-1.125 22.681h5.85v-1.173c0-2.793 1.238-3.854 3.207-3.854 1.969 0 3.207 1.061 3.207 3.854v8.604c0 2.793-1.238 3.799-3.207 3.799-1.969 0-3.207-1.006-3.207-3.8v-3.63h-5.85zM175.072 32.458h11.927v7.095h6.076v-7.095H196v-5.586h-2.925V.447h-6.751l-11.252 26.425v5.586zm5.682-5.586l6.245-14.693v14.693h-6.245z" fill="#fff"/></svg>