<?xml version="1.0" encoding="utf-8"?><svg width="24" height="24" fill="none" xmlns="http://www.w3.org/2000/svg" viewBox="0 0 24 24"><path d="M16.244 7.75A5.959 5.959 0 0012.02 6c-3.303 0-5.98 2.667-5.98 5.958 0 1.042.293 2.084.795 2.959L6 18l3.178-.833c.878.458 1.84.708 2.843.708 3.303 0 5.979-2.667 5.979-5.958-.042-1.542-.627-3.042-1.756-4.167zm-1.338 6.333c-.126.334-.71.667-1.004.709-.25.041-.585.041-.92-.042-.208-.083-.501-.167-.836-.333-1.505-.625-2.467-2.125-2.55-2.25-.084-.084-.627-.792-.627-1.542s.376-1.083.501-1.25c.126-.167.293-.167.418-.167h.293c.084 0 .21-.041.335.25.125.292.418 1.042.46 1.084a.265.265 0 010 .25.873.873 0 01-.168.25c-.083.083-.167.208-.209.25-.083.083-.167.166-.083.291.083.167.376.625.836 1.042.585.5 1.045.667 1.213.75.167.083.25.042.334-.042.084-.083.376-.416.46-.583.084-.167.209-.125.334-.083.126.041.878.416 1.004.5.167.083.25.125.293.166.041.125.041.417-.084.75z" fill="#fff"/></svg>