<?xml version="1.0" encoding="utf-8"?><svg width="24" height="24" fill="none" xmlns="http://www.w3.org/2000/svg" viewBox="0 0 24 24"><path fill-rule="evenodd" clip-rule="evenodd" d="M6.993 15.764a1.502 1.502 0 01-.598-.321 1.319 1.319 0 01-.368-.536c-.42-1.047-.545-5.42.265-6.284.27-.28.65-.454 1.06-.481 2.173-.213 8.887-.184 9.658.07.217.064.415.172.58.316.164.143.29.318.37.513.46 1.082.475 5.017-.062 6.057a1.41 1.41 0 01-.678.623c-.81.368-9.152.361-10.227.043zm3.45-2.053l3.895-1.84-3.894-1.854v3.694z" fill="#fff"/></svg>