<?xml version="1.0" encoding="utf-8"?><svg viewBox="0 0 196 40" xmlns="http://www.w3.org/2000/svg" xmlns:xlink="http://www.w3.org/1999/xlink"><style>:root>svg{display:none}:root>svg:target{display:block}</style><svg fill="none" viewBox="0 0 196 40" id="logo" xmlns="http://www.w3.org/2000/svg"><path d="M9.789 39.553c6.188 0 9.338-3.408 9.338-9.665v-4.19c0-6.257-3.15-9.665-9.338-9.665h-3.6v-10h11.138V.447H0v39.106h9.789zm-3.6-5.586V21.62h3.6c1.969 0 3.15.894 3.15 3.687v4.972c0 2.794-1.181 3.687-3.15 3.687h-3.6zM32.404.447H23.29v39.106h6.189V24.86h2.925c6.188 0 9.226-3.407 9.226-9.665v-5.083c0-6.257-3.038-9.665-9.226-9.665zm0 5.586c1.97 0 3.038.894 3.038 3.688v5.865c0 2.794-1.069 3.688-3.038 3.688H29.48V6.034h2.925zM50.181 9.441c0-2.793 1.238-3.854 3.207-3.854 1.969 0 3.207 1.061 3.207 3.854V30.56c0 2.793-1.238 3.854-3.207 3.854-1.969 0-3.207-1.061-3.207-3.854V9.44zm-6.188 20.727c0 6.257 3.32 9.832 9.395 9.832 6.076 0 9.395-3.575 9.395-9.832V9.832c0-6.257-3.32-9.832-9.395-9.832-6.076 0-9.395 3.575-9.395 9.832v20.336zM80.898 39.553h6.357l-8.608-21.676L87.255.447h-6.188l-8.102 17.039V.446h-6.188v39.107h6.188V27.542l1.913-3.576 6.02 15.587zM96.256 6.033h10.689V.447H90.068v39.106h16.877v-5.586h-10.69V22.514h8.496v-5.587h-8.495V6.033zM119.884.447h-9.114v39.106h6.188V24.86h2.926c6.188 0 9.226-3.407 9.226-9.665v-5.083c0-6.257-3.038-9.665-9.226-9.665zm0 5.586c1.969 0 3.038.894 3.038 3.688v5.865c0 2.794-1.069 3.688-3.038 3.688h-2.926V6.034h2.926zM135.805 9.72h4.781v29.833h6.189V.447h-4.163c-.957 2.626-2.026 4.916-6.807 4.916v4.358zM153.976 26.927v3.24c0 6.258 3.15 9.833 9.226 9.833 6.076 0 9.226-3.575 9.226-9.832v-8.715c0-5.755-2.307-8.939-6.863-8.939-2.476 0-4.276 1.006-5.401 2.85l.506-9.33h10.745V.447h-16.314l-1.125 22.681h5.85v-1.173c0-2.793 1.238-3.854 3.207-3.854 1.969 0 3.207 1.061 3.207 3.854v8.604c0 2.793-1.238 3.799-3.207 3.799-1.969 0-3.207-1.006-3.207-3.8v-3.63h-5.85zM175.072 32.458h11.927v7.095h6.076v-7.095H196v-5.586h-2.925V.447h-6.751l-11.252 26.425v5.586zm5.682-5.586l6.245-14.693v14.693h-6.245z" fill="#fff"/></svg><svg fill="none" viewBox="0 0 24 24" id="telegram" xmlns="http://www.w3.org/2000/svg"><path d="M19 6.425L16.944 17.5s-.288.768-1.078.4l-4.745-3.886-.022-.012c.64-.615 5.61-5.388 5.828-5.605.336-.335.127-.534-.263-.281l-7.34 4.98-2.833-1.018s-.446-.17-.489-.537c-.043-.37.504-.569.504-.569L18.05 6.133s.949-.445.949.292z" fill="#fff"/></svg><svg fill="none" viewBox="0 0 24 24" id="vk" xmlns="http://www.w3.org/2000/svg"><path d="M12.625 16C7.842 16 5.114 12.997 5 8h2.396c.079 3.668 1.845 5.221 3.244 5.541V8h2.256v3.163C14.278 11.027 15.73 9.586 16.22 8h2.256a5.85 5.85 0 01-1.08 2.287 6.47 6.47 0 01-1.989 1.701 6.842 6.842 0 012.267 1.653A6.155 6.155 0 0119 16h-2.483a3.933 3.933 0 00-1.34-1.93 4.518 4.518 0 00-2.28-.929V16h-.272z" fill="#fff"/></svg><svg fill="none" viewBox="0 0 24 24" id="whatsapp" xmlns="http://www.w3.org/2000/svg"><path d="M16.244 7.75A5.959 5.959 0 0012.02 6c-3.303 0-5.98 2.667-5.98 5.958 0 1.042.293 2.084.795 2.959L6 18l3.178-.833c.878.458 1.84.708 2.843.708 3.303 0 5.979-2.667 5.979-5.958-.042-1.542-.627-3.042-1.756-4.167zm-1.338 6.333c-.126.334-.71.667-1.004.709-.25.041-.585.041-.92-.042-.208-.083-.501-.167-.836-.333-1.505-.625-2.467-2.125-2.55-2.25-.084-.084-.627-.792-.627-1.542s.376-1.083.501-1.25c.126-.167.293-.167.418-.167h.293c.084 0 .21-.041.335.25.125.292.418 1.042.46 1.084a.265.265 0 010 .25.873.873 0 01-.168.25c-.083.083-.167.208-.209.25-.083.083-.167.166-.083.291.083.167.376.625.836 1.042.585.5 1.045.667 1.213.75.167.083.25.042.334-.042.084-.083.376-.416.46-.583.084-.167.209-.125.334-.083.126.041.878.416 1.004.5.167.083.25.125.293.166.041.125.041.417-.084.75z" fill="#fff"/></svg><svg fill="none" viewBox="0 0 24 24" id="youtube" xmlns="http://www.w3.org/2000/svg"><path fill-rule="evenodd" clip-rule="evenodd" d="M6.993 15.764a1.502 1.502 0 01-.598-.321 1.319 1.319 0 01-.368-.536c-.42-1.047-.545-5.42.265-6.284.27-.28.65-.454 1.06-.481 2.173-.213 8.887-.184 9.658.07.217.064.415.172.58.316.164.143.29.318.37.513.46 1.082.475 5.017-.062 6.057a1.41 1.41 0 01-.678.623c-.81.368-9.152.361-10.227.043zm3.45-2.053l3.895-1.84-3.894-1.854v3.694z" fill="#fff"/></svg></svg>